<?xml version="1.0" encoding="utf-8"?>
<!-- Generator: Adobe Illustrator 24.0.2, SVG Export Plug-In . SVG Version: 6.00 Build 0)  -->
<svg version="1.1" xmlns="http://www.w3.org/2000/svg" xmlns:xlink="http://www.w3.org/1999/xlink" x="0px" y="0px"
	 viewBox="0 0 283.46 283.46" style="enable-background:new 0 0 283.46 283.46;" xml:space="preserve">
<style type="text/css">
	.st0{fill:#979958;}
	.st1{fill:#66663B;}
</style>
<g id="Ebene_3">
	<path class="st0" d="M243.26,160.65c0,0-1.16-0.02-1.72-0.03c-24.49-0.31-45.06-4.31-61.16-11.9l-2.36-1.11
		c-0.05,0.01-0.09,0.01-0.14,0.01c-0.25,0-0.49-0.02-0.74-0.06c-2.4-0.38-4.04-1.44-4.87-3.15c-1.4-2.9,0.06-6.54,2.85-11.47
		c0.39-0.68,0.8-1.41,1.25-2.2c4.15-7.4,10.42-18.59,18.36-24.64c0.96-0.72,1.95-1.51,2.99-2.32c7.5-5.9,17.54-13.79,30.66-15.53
		c-1.42-1.15-3.09-2.68-4.7-4.61c-2.75-3.31-10.77-17.88-28.82-26.43c-2.26-1.08-4.67-2.05-7.26-2.89c-0.5-0.18-1.01-0.34-1.53-0.49
		c0-0.01,0-0.01,0-0.01c-6.08-1.83-13.04-2.95-21-2.95c-1.78,0-3.54,0.07-5.27,0.21c-2.77,0.22-5.47,0.61-8.1,1.14c0,0,0,0,0,0.01
		c-11.49,2.33-21.68,7.45-30.38,13.57c-1.71,1.19-3.36,2.43-4.95,3.69c-9.02,7.15-16.15,15.07-21.15,21.27
		c-1.35,1.69-2.55,3.24-3.58,4.62c-0.01,0-0.01,0-0.01,0c-0.75,1-1.41,1.91-1.99,2.7c-3.8,5.23-9.26,11.95-14.12,17.76
		c-2.75,3.3-5.3,6.3-7.25,8.57c-2.25,2.62-3.69,4.26-3.69,4.26c1.75,2.59,3.54,5.05,5.39,7.37c2.47,3.15,5.02,6.06,7.62,8.74
		c12.06,12.44,25.21,20.03,37.67,24.56c6.54,2.38,18.8,4.87,18.8,4.87c3.93-2.38,10.1-12.48,10.1-12.48
		c-6.03,21.86-39.09,37.19-39.09,37.19c0.66,1.58,16.61,9.49,22.02,6.73c5.4-2.77,10.81-9.37,10.81-9.37
		c-0.92,2.64-3.03,6.07-3.03,6.07c-0.53,2.77,0.92,5.01,0.92,5.01c6.86-1.98,13.58-7.78,17.94-14.37c4.35-6.6,1.73-21.96,1.73-21.96
		s2.62,2.58,2.88,4.32c1.67,0.24,3.31,0.45,4.91,0.66c6.2,0.77,11.94,1.3,17.26,1.61c45.78,2.65,60.06-10.74,64.21-17.05
		C244.24,160.62,243.75,160.65,243.26,160.65z M183.07,79.77c4.17-0.35,7.3,1.04,9.21,5.56c1.92,4.52,2.58,5.74,2.58,5.74
		c-7.33,5.04-17.01,2.6-17.53-2.26C176.81,83.94,178.9,80.11,183.07,79.77z"/>
	<path class="st1" d="M239.31,97.02c-0.16,3.08-0.54,5.17-3.32,6.48c-1.98,0.94-5.18,1.48-10.4,1.7c-0.31,0.01-0.62,0.03-0.94,0.06
		h-0.01c-1.65,0.14-3.33,0.47-5.01,0.95h-0.01c-3.26,0.94-6.54,2.45-9.65,4.27h-0.01c-0.79,0.46-1.55,0.93-2.31,1.42
		c-2.98,1.92-5.76,4.06-8.18,6.18c-0.67,0.58-1.3,1.16-1.91,1.74h-0.01c-1.81,1.69-3.34,3.33-4.53,4.76
		c-0.55,0.67-1.1,1.4-1.65,2.17c-0.28,0.39-0.55,0.79-0.82,1.2c0,0,0,0-0.01,0.01c-1.2,1.81-2.38,3.78-3.53,5.72
		c-1.17,1.97-2.31,3.91-3.4,5.6c-0.47,0.73-0.94,1.41-1.4,2.03c-1.21,1.65-2.36,2.85-3.45,3.28c-0.4,0.17-0.79,0.23-1.17,0.17
		c-4.22-0.66-3.82-3.69,0-10.42c3.83-6.72,10.55-19.65,18.86-25.98s19.78-16.88,35.54-17.6C231.99,90.76,239.57,91.75,239.31,97.02z
		"/>
	<path class="st1" d="M252.36,149.51c0,2.72-2.09,6.47-6.01,7.8c-1,0.34-2.12,0.53-3.35,0.5c-5.85-0.13-36.08,0.28-61.41-11.65
		c0.93-0.72,1.87-1.76,2.9-3.16c0.5-0.68,1-1.41,1.5-2.18c0.05-0.08,0.11-0.17,0.17-0.26c2.04,0.96,5.18,2.34,9.04,3.68h0.01
		c1.83,0.64,3.82,1.26,5.93,1.82c1.49,0.41,3.05,0.78,4.65,1.11c1.98,0.4,4.03,0.73,6.12,0.95c1.94,0.21,3.92,0.33,5.9,0.33
		c2.31,0,4.46-0.02,6.47-0.05c1.76-0.03,3.4-0.07,4.94-0.13c2.82-0.09,5.28-0.22,7.43-0.38c1.51-0.11,2.86-0.23,4.06-0.36
		c3.23-0.35,5.41-0.77,6.77-1.19c0.52-0.16,1-0.27,1.43-0.34C251.32,145.59,252.36,146.6,252.36,149.51z"/>
	<path class="st1" d="M112.11,171.18c-4.65,2.22-14.18,5.05-26.69-0.31l1.45-5.54l-5.01-1.06c0,0-0.66-2.9-3.17-5.53
		c-2.19-2.32-6.91-7.34-3.18-12.03c0.01,0.01,0.03,0.03,0.04,0.04C86.09,157.63,98.38,165.83,112.11,171.18z"/>
	<path class="st1" d="M69.31,139.74c-1.94,7.96-9.29,26-36.24,25.59c0,0,4.22-3.96,4.35-7.12c0.13-3.17,0.92-6.46,0.92-6.46
		l3.82-1.59l-3.95-1.45c0,0,1.71-15.56,11.47-17.8c0,0-7.78-4.22-9.23-7.51c-1.45-3.3,2.24-5.67,2.24-5.67s-3.03-1.46-4.48-1.46
		c0,0,0.82-13.84-7.11-16.61c0,0,22.18-12.43,36.02,21.74c-0.36,0.42-0.7,0.81-1,1.16c-2.23,2.6-3.66,4.23-3.67,4.24l-1.44,1.64
		l1.22,1.82c1.84,2.71,3.69,5.25,5.51,7.53C68.25,138.45,68.78,139.1,69.31,139.74z"/>
	<path class="st1" d="M92.35,89.81c-0.76,0.96-1.47,1.87-2.12,2.74h-0.02l-0.85,1.13c-0.05,0.07-0.1,0.14-0.15,0.2
		c-2.71-1.51-7.5-3.72-13.46-4.52c-0.8-0.12-1.62-0.2-2.46-0.25c0,0,1.02-0.44,2.97-0.77c0,0,0,0,0.01,0
		C79.37,87.81,84.83,87.56,92.35,89.81z"/>
	<path class="st1" d="M159.22,48.28c-2.67,0.23-5.39,0.61-8.08,1.16l-0.04,0.01c-1.22-4.61-4.58-14-12.94-20.43
		c-0.66-0.52-1.36-1.01-2.09-1.48c0.18,0.05,2.06,0.52,4.69,1.63C146.63,31.63,156.28,37.26,159.22,48.28z"/>
	<path class="st1" d="M188.91,51.77v-0.06l-1.1-0.33l-0.92-0.27c-0.06-0.02-0.11-0.03-0.17-0.05c0.93-4.95,1.85-15.81-4.69-26.1
		c-0.15-0.24-0.31-0.48-0.47-0.72c0.38,0.22,12.32,7.26,13.24,29.83C192.88,53.2,190.89,52.42,188.91,51.77z"/>
	<path class="st0" d="M76.3,92.31c4.75,0.77,8.65,2.48,11.21,3.88l-0.16,0.22c-2.56,3.51-6.23,8.19-10.73,13.67
		C77.17,105.83,77.5,99.55,76.3,92.31z"/>
	<path class="st1" d="M101.66,56.78c-3.11-0.31-5.17-0.11-5.17-0.11c1.21,0.26,2.37,0.58,3.47,0.95c7.27,2.42,12.19,6.96,14.62,9.67
		c0.01,0,0.02-0.01,0.03-0.02c0.75-0.6,1.49-1.17,2.22-1.72c0.8-0.6,1.59-1.17,2.37-1.73C113.26,58.81,106.29,57.24,101.66,56.78z"
		/>
	<path class="st0" d="M112.39,69.07l-0.01,0.01c-6.26,5.22-12.32,11.37-18.1,18.34l-1.12-0.33c-4.32-1.29-8.49-1.95-12.37-1.95
		c-0.47,0-0.93,0.01-1.38,0.03c4.6-4.81,12.59-13.89,19.12-25.03c0.18,0.05,0.35,0.11,0.53,0.17
		C105.31,62.39,110.05,66.6,112.39,69.07z"/>
	<path class="st0" d="M148.33,50.09c-9.09,2.22-18.03,6.26-26.68,12.04c-4.71-3.85-10.47-6.2-15.19-7.36
		c0.04-0.02,0.08-0.04,0.12-0.06c6.24-3.06,16.68-9.68,29.65-23.59c0.07,0.05,0.13,0.1,0.2,0.15
		C143.95,37.05,147.11,45.5,148.33,50.09z"/>
	<path class="st0" d="M183.97,50.31c-5.94-1.51-12.28-2.27-18.9-2.27c-0.99,0-1.98,0.02-2.96,0.06l-0.15-0.55
		c-2.43-9.08-8.89-14.79-14.56-18.19c8.87,0.1,22.28-0.35,31.89-3.41c0.12,0.17,0.23,0.35,0.35,0.53
		C185.67,35.96,184.73,46.14,183.97,50.31z"/>
	<path class="st0" d="M235.99,120.33c0,0-1.5-7.59-7.24-12.48c3.76-0.3,6.39-0.85,8.28-1.72
		C237.89,109.07,238.61,114.22,235.99,120.33z"/>
	<path class="st0" d="M219.63,123.99c0,0-2.28-6.25-7.46-11.5c2.74-1.54,5.4-2.7,7.91-3.46l0.12-0.03
		C220.72,112.24,221.18,117.94,219.63,123.99z"/>
	<path class="st0" d="M209.14,127.95c0,0-1.57-4.4-7.14-8.31c2.07-1.77,4.29-3.44,6.5-4.91
		C209.19,117.57,209.93,122.32,209.14,127.95z"/>
	<path class="st0" d="M198.86,133.68c0,0-0.68-2.89-4.96-5.58c0.46-0.65,0.89-1.21,1.3-1.71c0.9-1.08,1.95-2.22,3.08-3.34
		C198.79,125.82,199.32,129.96,198.86,133.68z"/>
	<path class="st0" d="M192.53,138.43c0,0-1.05-1.83-3.05-3.34c0.75-1.28,1.54-2.61,2.34-3.88
		C192.48,133.31,193.06,136.09,192.53,138.43z"/>
	<path class="st0" d="M249.44,143.1c-0.32,0.01-0.65,0.04-0.99,0.1c-0.59,0.1-1.2,0.24-1.81,0.43c-0.69,0.22-1.9,0.51-3.95,0.79
		c1.75-3.13,3.97-8.27,3.66-13.71C246.35,130.71,250.27,135.51,249.44,143.1z"/>
	<path class="st0" d="M237.04,145.02c-0.2,0.01-0.4,0.03-0.6,0.04c-1.7,0.13-3.57,0.23-5.58,0.32c2.59-5.68,3.01-12.98,3.01-12.98
		C236.96,136.82,237.24,141.92,237.04,145.02z"/>
	<path class="st0" d="M224.9,145.56c-0.22,0-0.44,0.01-0.66,0.01c-1.47,0.01-3.01,0.03-4.64,0.04c2.09-4.33,2.89-10.15,2.89-10.15
		C224.81,139.76,225.1,143.28,224.9,145.56z"/>
	<path class="st0" d="M212.36,145.31c-0.05,0-0.1,0-0.15-0.01c-1.46-0.16-2.97-0.37-4.51-0.65c2.14-3.88,2.63-9.19,2.63-9.19
		C212.35,139.21,212.55,142.89,212.36,145.31z"/>
	<path class="st0" d="M202.29,143.43c-0.14-0.03-0.28-0.07-0.42-0.11c-1.02-0.27-2.04-0.56-3.04-0.87c2.58-2.13,4.58-5.41,4.58-5.41
		C203.62,139.21,202.95,141.64,202.29,143.43z"/>
	<path class="st1" d="M192.74,191.04c-6.75,7.78-15.67,10.69-15.67,10.69c-2.25-2.11-4.49-7.26-4.49-7.26
		c-1.84,3.3-4.22,5.15-4.22,5.15c-2.67-6.68-4.15-16.05-4.77-20.72c5.88,0.72,11.52,1.24,16.76,1.55c0.64,0.04,1.28,0.07,1.92,0.1
		C186.63,186.96,192.74,191.04,192.74,191.04z"/>
</g>
<g id="Ebene_1">
	<g>
		<path class="st1" d="M35.7,131.17c-1.28-1.35-2.35-2.8-3.03-4.34c-0.31-0.69-0.54-1.38-0.71-2.06h-2.77l0.53-9
			c0.13-2.74-0.46-6.21-1.25-7.67c-1.36,7.07-2.07,14.37-2.07,21.83c0,8.64,0.95,17.05,2.75,25.14c0.02-0.2,0.05-0.4,0.07-0.6
			l-0.19-0.07l0.73-6.62C29.91,146.38,31.01,137.99,35.7,131.17z"/>
		<path class="st1" d="M45.62,172.7c-3.2,0.67-6.71,1.07-10.57,1.13c11.36,27.56,33.08,49.76,60.32,61.73v-11.19
			C73.33,213.52,55.64,195.2,45.62,172.7z"/>
		<path class="st1" d="M234.85,178.85c-11.11,21.13-29.2,38.01-51.21,47.58l-7.55,13.63c35.48-11.06,63.61-38.8,75.2-74.03
			C248.55,169.9,243.61,174.81,234.85,178.85z"/>
		<path class="st1" d="M33.59,89.78c2-0.48,4.37-0.83,7.03-0.83c1.22,0,2.6,0.08,4.09,0.3c13.87-33.04,44.12-57.51,80.6-63.22
			l-9.22-5.53l18.23,0.21l0.78-0.84l1.21,0.86l1.07,0.76l0.33-0.74l0.63-1.41c1.38,0.37,2.89,0.87,4.42,1.47l4.74,0.05
			c0.67,0,1.37,0.01,2.09,0.01c9.36,0,17.3-0.69,23.28-2.01c-9.91-2.78-20.35-4.26-31.14-4.26C92.16,14.6,49.89,45.88,33.59,89.78z"
			/>
	</g>
	<path class="st1" d="M257.06,129.93c0,1.19-0.02,2.38-0.06,3.56c-1.39-4.75-3.67-7.68-4.06-8.16l-6.82-8.35
		c-0.39-3.21-0.93-6.38-1.62-9.49c2.97-3.57,3.19-7.86,3.3-10.05c0.06-1.11-0.01-2.17-0.19-3.16c-0.11-0.61-0.26-1.2-0.45-1.77
		c-0.01,0-0.01-0.01-0.01-0.01c-1.69-5.04-6.36-8.29-11.34-9.63c-7.82-15.63-19.43-29.04-33.63-39.02
		c-1.25-6.44-3.35-11.5-5.65-15.42C232.58,47.93,257.06,86.07,257.06,129.93z"/>
	<polygon class="st0" points="154.91,256.69 147.46,269.19 135.45,269.19 148.56,246.47 	"/>
	<polygon class="st0" points="178.15,269.19 166.78,269.19 157.12,252.94 150.77,242.72 136.15,216.2 148.21,216.2 157.08,232.29 
		162.84,242.72 	"/>
	<polygon class="st0" points="177.45,216.2 165.02,238.6 159.27,228.17 165.44,216.2 	"/>
	<polygon class="st0" points="115.26,259.25 115.26,216.2 105.32,216.2 105.32,259.25 105.32,269.19 115.26,269.19 131.81,269.19 
		131.81,259.25 	"/>
</g>
</svg>
