<?xml version="1.0" encoding="utf-8"?>
<!-- Generator: Adobe Illustrator 24.0.2, SVG Export Plug-In . SVG Version: 6.00 Build 0)  -->
<svg version="1.1" id="Ebene_1" xmlns="http://www.w3.org/2000/svg" xmlns:xlink="http://www.w3.org/1999/xlink" x="0px" y="0px"
	 viewBox="0 0 283.46 283.46" style="enable-background:new 0 0 283.46 283.46;" xml:space="preserve">
<style type="text/css">
	.st0{display:none;}
	.st1{display:inline;fill:#423A66;}
	.st2{display:inline;fill:#695A9F;}
	.st3{fill:#423A66;}
</style>
<g id="Ebene_3" class="st0">
	<path class="st1" d="M198.7,121.25c0,0-17.39,0.71-22.6-0.24c-5.22-0.95-18.09-10.32-18.09-10.32c-1.9-7.57-0.78-19.78-0.78-19.78
		c23.86-5.49,39.48,10.73,41.33,13.13c0.5,0.65,0.94,1.29,1.24,1.95c0.81,1.77,0.59,3.71-2.25,6.57
		C193.66,116.48,198.7,121.25,198.7,121.25z"/>
	<path class="st2" d="M236.49,157.08c-6.01,1.6-12.69-1.03-12.69-1.03c-13.45-16.36-29.58-21.08-29.58-21.08
		c-2.62-4.37-10.38-5.02-10.38-5.02c-0.7-2.64-4.45-4.57-4.45-4.57c3.19,0.59,4.91,2.98,4.91,2.98c5.73,0.33,9.1,2.37,9.1,2.37
		c3.27,0.21,7.01-1.97,7.01-1.97c3.4,2.16,8.76,1.27,8.76,1.27c3,3.82,8.45,1.88,8.45,1.88c-6.88-0.83-6.73-2.69-6.73-2.69
		c6.2,3.08,7.44-3.68,6.29-4.16c-1.15-0.49-5.44-3.16-7.13-6.73c-1.03-2.16-4.56-6.21-7.19-9.09c-0.58,2.58-2.49,4.5-3.3,5.32
		c-0.58,0.58-0.65,1.04-0.65,1.37c0.02,1.3,1.3,2.83,1.75,3.27l4.75,4.6l-6.59,0.28c-0.57,0.02-13.98,0.57-20.79,0.02
		c-0.98-0.08-1.78-0.18-2.44-0.3c-4.13-0.75-11.68-5.59-16.04-8.56c-5.58,10.25-28.01,15.38-41.24,14.4
		c-16.25-1.19-32.3-1.17-44.06,0.08c-3.26,0.34-6.1,0.42-8.42,0.23c-2.66-0.21-4.5-0.77-5.77-1.45c0.04,1.03,0.09,1.97,0.17,2.81
		c0.81,8.06,3.93,8.57,9.42,10.72c6.74,2.62,21.14,0.02,21.14,0.02c13.22-10.94,21.5-10.31,24.3-11.07
		c-5.97,1.63-20.73,9.87-26.84,15.43c-6.2,5.65-17.45,7.32-17.45,7.32c1.13,0.74,1.87,1.54,2.3,2.37c0,0.01,0,0.01,0,0.02
		c0.91,1.71,0.52,3.5-0.19,4.99l-0.01,0.01c-0.94,1.96-2.48,3.39-2.48,3.39c7.13-1.01,22.85-16.21,31.35-21.98
		c8.23-5.58,18.51-7.65,19.14-7.77c-5.83,2.61-10.55,6.3-10.55,6.3c3.29,1.06,14.65,0.7,14.65,0.7s11.15-6.91,17.78-12.91
		c6.23-5.64,12.3-6.56,13.04-6.65c-3.28,0.62-12.25,7.15-15.38,10.65c-3.16,3.52-14.15,10.47-19.17,13.74
		c-5.02,3.26-10.04,13.77-10.71,17.19c-0.68,3.42-2.14,4.39,0.19,3.69c2.34-0.71,6.5-12.87,8.87-16.45c2.38-3.58,8.14-4.9,13.6-7.43
		c5.47-2.54,11.86-9.27,17.41-11.66c5.38-2.32,9.81-6.67,10.08-6.95c-1.3,2.57-3.72,4.81-3.72,4.81l11.16-1.01
		c-0.01-1.86,0.28-3.49,0.28-3.49s0.23,2.1,4.75,10c4.52,7.91,20.3,4.65,20.3,4.65c2.71,4.12,5.98,5.38,11.8,7.11
		c5.81,1.73,7.82,3.88,14.85,9.47c7.02,5.59,14.88,3.32,14.88,3.32s3.51-1.04,8.62-1.16c5.1-0.12,7.94,4.94,7.94,4.94
		C253.95,155.41,242.51,155.48,236.49,157.08z M207.02,124.53c0.84-0.69,1.28-0.29,1.83,0.4c0.54,0.69,0.79,0.97,0.79,0.97
		C205.98,127.02,206.18,125.23,207.02,124.53z"/>
	<path class="st1" d="M157.2,113.61c-4.43,8.86-25.75,14.16-38.69,13.21c-14.31-1.05-31.25-1.33-44.56,0.08
		c-13.32,1.4-13.91-2.28-13.91-2.28s-1.5-7.1,2.02-12.72c0,0,0.12-3.81,4.24-7.05c4.13-3.24,8.48-11.63,27.13-15.18
		c18.64-3.56,25.56-4.38,37.74-2.9c11.05,1.33,14.98-1.05,23.34,2.78l-0.1,1.12c-0.05,0.52-1.14,12.78,0.85,20.73l0.25,0.99
		l0.83,0.61C156.49,113.1,156.8,113.31,157.2,113.61z"/>
	<path class="st1" d="M70.46,159.65l-0.12,0.24c-0.28,0.61-0.67,1.16-1.01,1.59c-2.84,0.37-6.94,1.13-10.68,2.57
		c-6.55,2.55-11.35,4.25-14.19,6.3c-2.84,2.06-1.88,3.52-4.16,3.54c-2.29,0.02-1.62-2.02,1.83-4.32c3.47-2.3,7.6-5.64,16.82-8.07
		c5.61-1.47,9.56-2.33,11.84-3.27C70.8,158.57,70.72,159.04,70.46,159.65z"/>
</g>
<g id="Ebene_4">
	<path class="st3" d="M181.42,189.47c-3.36,31.01-25.91,40.55-36.86,41.99c0,0-0.61,0.09-1.45,0.15V129.9
		c0.25-0.22,0.49-0.45,0.71-0.66c0.04-0.04,0.08-0.08,0.11-0.12c0.21-0.22,0.4-0.43,0.59-0.64c0.16-0.17,0.3-0.34,0.43-0.5
		c0.18-0.21,0.34-0.42,0.5-0.62c0.15-0.2,0.29-0.39,0.41-0.57c0.14-0.19,0.27-0.38,0.38-0.56c0.12-0.19,0.23-0.37,0.33-0.55
		c0.44-0.75,0.75-1.45,0.98-2.09c0.1-0.28,0.19-0.54,0.25-0.8c0.05-0.14,0.08-0.28,0.11-0.42c0.11-0.41,0.18-0.79,0.23-1.14
		c0,0,0,0,0.01,0c0.91-0.22,1.94-0.49,3.11-0.85h0.05l0.02-0.01h0.06l0.5-0.19c0.64-0.25,1.46-0.53,2.39-0.82
		c4.22-1.33,10.43-2.75,12.76-3.29l0.24-0.06c0.58-0.13,1.22-0.2,1.86-0.2c0.22,0,0.44,0.01,0.66,0.03l0.44,0.03l0.28-0.07
		c0.69-0.02,1.82-0.14,2.96-0.67c0.3-0.13,0.57-0.29,0.83-0.47l0.01,0.01c0.03,0.02,0.07,0.06,0.1,0.09
		c0.06,0.06,0.11,0.11,0.16,0.17c0.16,0.17,0.3,0.35,0.43,0.55c0.04,0.06,0.08,0.13,0.12,0.2c0.06,0.09,0.11,0.18,0.15,0.28
		c0.04,0.08,0.08,0.16,0.11,0.25c0.1,0.23,0.17,0.47,0.23,0.73c0.11,0.53,0.39,1.72,0.77,3.45h0.01c1.26,5.72,3.65,17.45,4.98,31.76
		c0.34,3.63,0.61,7.42,0.77,11.33C182.5,171.83,182.37,180.68,181.42,189.47z"/>
	<path class="st3" d="M197.44,199.36c-2.23,0.93-2.85,0-3.42-1.14c-0.32-0.64-0.63-1.35-1.2-1.83c-1.44-1.2-2.61,2.33-4.15,2.1
		c-0.15-0.02-0.3-0.08-0.46-0.18c-0.95-0.6-2.27-8.82-3.32-16.63c0.32-5.84,0.35-11.98,0.09-18.32c-0.13-3.1-0.33-6.31-0.61-9.57
		c2.44,2.38,3.38,6.34,3.38,6.34c3.62,10.55,5.4,16.22,6.33,24.79C195,193.49,197.44,199.36,197.44,199.36z"/>
	<path class="st3" d="M189.41,216.64c0,0-2.98,6.92-9.84,6c0,0,4.68-1.26,5.94-3.5c0,0-3.89,0.92-5.94,0.66c0,0,3.89-0.46,6-2.64
		c0,0-1.05-2.04,0.27-3.16c1.31-1.12,4.35-1.98,4.08-6.4c-0.17-2.92-0.69-4.56-1-6.27c1.23-0.02,2.17-0.62,2.88-1.25
		c0.32,0.53,0.82,1.23,1.59,1.74c0.01,0.42,0.05,0.88,0.13,1.35C194.01,206.14,195.36,212.42,189.41,216.64z"/>
	<path class="st3" d="M198.96,138.85c-1.6-0.48-2.12,0.2-2.94,0.59c-0.43,0.22-0.95,0.35-1.75,0.19
		c-2.3-0.47-13.45-19.72-13.45-19.72s-0.61,0.31-1.52,0.5c-0.04-0.21-0.08-0.42-0.13-0.63l-0.5-2.22h-0.01c0-0.02,0-0.03-0.01-0.04
		c-0.11-0.52-0.2-0.91-0.26-1.19c-0.25-1.14-0.74-2.16-1.45-3.02c2.06,0.04,4.15,0.29,4.74,1.06c1.25,1.65,1.58,0.86,2.77,1.98
		s15.96,19.91,16.68,21.69C201.13,138.04,201.4,139.59,198.96,138.85z"/>
	<path class="st3" d="M208.7,168.06c0,0,2.22-3.61,1.23-6.68c0,0-2.77-0.19-2.81-3.8c-0.05-3.61-0.75-7.72-5.25-10.64
		c-2.3-1.48-3.77-3.41-4.66-4.93c0.01,0,0.02-0.01,0.03-0.01c0.25-0.12,0.48-0.25,0.71-0.39c0.04-0.02,0.07-0.04,0.11-0.07
		c0.02,0.01,0.05,0.01,0.08,0.02c0.71,0.22,1.35,0.32,1.95,0.32c0.14,0,0.29-0.01,0.43-0.02c0.52,0.67,1.24,1.39,2.19,2.12
		c3.37,2.57,8.58,5.93,8.51,14.3C211.22,158.28,213.35,165.49,208.7,168.06z"/>
	<path class="st3" d="M203.51,90.08c1.13,1.63,0,1.48-1.88,0.74s-5.39,1.23-4.7,2.47c0.69,1.24,0.94,1.58,0.39,1.98
		c-0.54,0.39-3.01-0.64-6.23,1.14c-3.21,1.78-14.24,4.64-14.24,4.64c-0.09,0.4-0.37,0.72-0.74,0.97c-0.39-2.56-0.96-5.04-1.7-7.41
		c1.19,0.47,1.6,1.23,1.6,1.23c9.03-6.32,15.14-9.24,20.52-11.15c3.68-1.31,10.14,0,10.14,0s-0.15,0.2-0.27,0.53
		c-0.16,0.4-0.3,1.01-0.09,1.65c0.07,0.22,0.19,0.45,0.36,0.67l-3.02-0.04C201.92,87.7,202.37,88.44,203.51,90.08z"/>
	<path class="st3" d="M218.09,89.33c-2.1,0.86-4.41,0.63-6.4,0.07l-2.23-2.89c1.57,0.54,3.38,0.98,4.53,0.65
		c2.37-0.69,3.06-1.34,4.4-1.14c0,0,0.74-2.72-0.74-4c0,0,2.12,0.89,2.32,3.26C219.97,85.28,223.19,87.26,218.09,89.33z"/>
	<path class="st3" d="M154.65,60.15c-0.53-0.85-1.03-1.6-1.48-2.22c1.61-1.39,3.23-3.56,1.82-6.08
		C154.99,51.85,159.48,55.86,154.65,60.15z"/>
	<path class="st3" d="M140.35,129.89v101.72c-0.84-0.06-1.45-0.15-1.45-0.15c-10.95-1.44-33.5-10.98-36.86-41.99
		c-0.95-8.79-1.08-17.64-0.73-25.99c0.16-3.91,0.43-7.7,0.77-11.33c1.33-14.31,3.72-26.04,4.98-31.76h0.01
		c0.38-1.73,0.66-2.92,0.77-3.45c0.21-0.95,0.67-1.7,1.31-2.28c1.1,0.73,2.46,1.1,3.78,1.14l0.29,0.07l0.44-0.03
		c0.22-0.02,0.44-0.03,0.66-0.03c0.64,0,1.28,0.07,1.85,0.2l0.26,0.06c2.33,0.54,8.53,1.97,12.76,3.3c0.92,0.28,1.74,0.56,2.38,0.81
		l0.5,0.19h0.07l0.03,0.01h0.04c1.17,0.36,2.19,0.63,3.1,0.85c0.03,0.17,0.06,0.35,0.1,0.53c0.04,0.2,0.08,0.4,0.13,0.61
		c0.24,0.95,0.62,2.06,1.35,3.31c0.1,0.18,0.21,0.36,0.33,0.55c0.11,0.18,0.24,0.37,0.38,0.56c0.12,0.18,0.26,0.37,0.41,0.57
		c0.16,0.2,0.32,0.41,0.5,0.62c0.13,0.16,0.27,0.33,0.43,0.5c0.15,0.17,0.3,0.33,0.46,0.51c0.04,0.04,0.08,0.09,0.13,0.13
		c0.03,0.04,0.07,0.08,0.11,0.12C139.86,129.45,140.1,129.68,140.35,129.89z"/>
	<path class="st3" d="M98.57,181.68c-1.05,7.81-2.37,16.03-3.32,16.63c-0.16,0.1-0.31,0.16-0.46,0.18c-1.54,0.23-2.71-3.3-4.15-2.1
		c-0.57,0.48-0.88,1.19-1.2,1.83c-0.57,1.14-1.19,2.07-3.42,1.14c0,0,2.44-5.87,3.36-14.44c0.93-8.57,2.71-14.24,6.33-24.79
		c0,0,0.94-3.96,3.38-6.34c-0.28,3.25-0.48,6.46-0.61,9.57C98.22,169.7,98.25,175.83,98.57,181.68z"/>
	<path class="st3" d="M103.89,222.64c-6.86,0.92-9.84-6-9.84-6c-5.95-4.22-4.6-10.5-4.11-13.47c0.08-0.47,0.12-0.93,0.13-1.35
		c0.77-0.51,1.27-1.21,1.59-1.74c0.71,0.63,1.65,1.23,2.88,1.25c-0.31,1.71-0.83,3.35-1,6.27c-0.27,4.42,2.77,5.28,4.08,6.4
		c1.32,1.12,0.27,3.16,0.27,3.16c2.11,2.18,6,2.64,6,2.64c-2.05,0.26-5.94-0.66-5.94-0.66C99.21,221.38,103.89,222.64,103.89,222.64
		z"/>
	<path class="st3" d="M106.53,113.31c-0.72,0.87-1.21,1.9-1.47,3.05c-0.05,0.25-0.14,0.64-0.25,1.16c-0.01,0.01-0.01,0.02-0.01,0.04
		h-0.02l-0.49,2.22c-0.05,0.21-0.09,0.42-0.13,0.63c-0.91-0.19-1.52-0.5-1.52-0.5s-11.15,19.25-13.45,19.72
		c-0.8,0.16-1.32,0.03-1.75-0.19c-0.82-0.39-1.34-1.07-2.94-0.59c-2.44,0.74-2.17-0.81-2.17-0.81c0.72-1.78,15.49-20.57,16.68-21.69
		s1.52-0.33,2.77-1.98C102.37,113.6,104.46,113.35,106.53,113.31z"/>
	<path class="st3" d="M86.25,142.01c-0.89,1.52-2.36,3.45-4.66,4.93c-4.5,2.92-5.2,7.03-5.25,10.64c-0.04,3.61-2.81,3.8-2.81,3.8
		c-0.99,3.07,1.23,6.68,1.23,6.68c-4.65-2.57-2.52-9.78-2.52-9.78c-0.07-8.37,5.14-11.73,8.51-14.3c0.95-0.73,1.67-1.45,2.19-2.12
		c0.14,0.01,0.28,0.02,0.43,0.02c0.6,0,1.24-0.1,1.94-0.31c0.04-0.01,0.06-0.02,0.09-0.03c0.04,0.03,0.07,0.05,0.11,0.07
		c0.23,0.14,0.46,0.27,0.64,0.35C86.18,141.98,86.22,141.99,86.25,142.01z"/>
	<path class="st3" d="M173.37,102.9c-0.36-2.53-0.98-5.51-2.04-8.62c-1.71-5.05-4.56-10.45-9.3-14.89c0,0-2.37,4.85-9.03,3.27
		c-6.66-1.58-8.43-2.24-11.27-2.24s-4.61,0.66-11.27,2.24s-9.03-3.27-9.03-3.27c-4.74,4.44-7.59,9.84-9.3,14.89
		c-1.06,3.11-1.68,6.09-2.04,8.62c-0.5,3.44-0.53,6.06-0.53,7.12c0,3.1,3.69,2.95,3.69,2.95s0.06,0.01,0.19,0.04
		c1.15-0.09,2.32,0,3.37,0.24c2.3,0.53,8.74,2,13.22,3.41c0.97,0.3,1.85,0.6,2.57,0.88c0.01,0,0.03,0.01,0.04,0.01
		c5.99,1.87,8.11,1.57,9.09,1.57s3.1,0.3,9.09-1.57c0.01,0,0.03-0.01,0.04-0.01c0.72-0.28,1.6-0.58,2.57-0.88
		c4.48-1.41,10.92-2.88,13.22-3.41c1.05-0.24,2.22-0.33,3.37-0.24c0.13-0.03,0.19-0.04,0.19-0.04s3.69,0.15,3.69-2.95
		C173.9,108.96,173.87,106.34,173.37,102.9z"/>
	<path class="st3" d="M145.13,121.8c-0.37,1.45-1.17,3.24-3.4,5.52c-2.23-2.28-3.03-4.07-3.4-5.52c1.05,0.14,1.83,0.17,2.44,0.17
		c0.27,0,0.5,0,0.69-0.01l0.27-0.01l0.27,0.01c0.19,0.01,0.42,0.01,0.69,0.01C143.3,121.97,144.08,121.94,145.13,121.8z"/>
	<path class="st3" d="M109.05,94.61c-0.74,2.37-1.31,4.85-1.7,7.41c-0.37-0.25-0.65-0.57-0.74-0.97c0,0-11.03-2.86-14.24-4.64
		c-3.22-1.78-5.69-0.75-6.23-1.14c-0.55-0.4-0.3-0.74,0.39-1.98s-2.82-3.21-4.7-2.47c-1.88,0.74-3.01,0.89-1.88-0.74
		c1.14-1.64,1.59-2.38-0.14-2.58l-3.02,0.04c0.17-0.22,0.29-0.45,0.36-0.67c0.21-0.64,0.07-1.25-0.09-1.65
		c-0.12-0.33-0.27-0.53-0.27-0.53s6.46-1.31,10.14,0c5.38,1.91,11.49,4.83,20.52,11.15C107.45,95.84,107.86,95.08,109.05,94.61z"/>
	<path class="st3" d="M160.41,76.25l-0.9,1.85c-0.12,0.21-1.19,2.04-3.96,2.04c-0.59,0-1.22-0.08-1.9-0.24
		c-1.58-0.37-2.88-0.7-3.99-0.97c-3.61-0.9-5.42-1.34-7.93-1.34s-4.32,0.44-7.93,1.34c-1.11,0.27-2.41,0.6-3.99,0.97
		c-0.68,0.16-1.31,0.24-1.9,0.24c-2.77,0-3.84-1.83-3.93-1.99l-0.93-1.9c0.22-0.44,0.47-0.9,0.73-1.4c1.24,0.77,2.87,1.27,4.17-0.1
		c2.44-2.58,1.85-6.6,0-7.59c1.08-1.92,2.17-3.79,3.18-5.37c0.53-0.85,1.04-1.62,1.51-2.27c4.03-5.64,5.6-5.68,9.09-5.68
		s5.06,0.04,9.09,5.68c0.47,0.65,0.98,1.42,1.51,2.27c1.01,1.58,2.1,3.45,3.18,5.37c-1.85,0.99-2.44,5.01,0,7.59
		c1.3,1.37,2.93,0.87,4.17,0.1C159.94,75.35,160.19,75.81,160.41,76.25z"/>
	<path class="st3" d="M74,86.51l-2.23,2.89c-1.99,0.56-4.3,0.79-6.4-0.07c-5.1-2.07-1.88-4.05-1.88-4.05
		c0.2-2.37,2.32-3.26,2.32-3.26c-1.48,1.28-0.74,4-0.74,4c1.34-0.2,2.03,0.45,4.4,1.14C70.62,87.49,72.43,87.05,74,86.51z"/>
	<path class="st3" d="M130.29,57.93c-0.45,0.63-0.95,1.39-1.48,2.22c-4.83-4.29-0.34-8.3-0.34-8.3
		C127.06,54.37,128.68,56.54,130.29,57.93z"/>
</g>
<g id="Ebene_1_1_">
</g>
</svg>
